<svg xmlns="http://www.w3.org/2000/svg" viewBox="0 0 64 64"><g id="Globe"><path d="M31.5,12h0a1,1,0,0,1,.25,0Zm.74-1h0Zm.25,0h0Zm-.24,1a1,1,0,0,1,.25,0h-.25Zm-9,38c.24.18.49.36.74.52h0a.45.45,0,0,1,0-.16C23.76,50.23,23.49,50.11,23.23,50Zm8.27,2h.25A1,1,0,0,1,31.5,52Zm-.29,1h-.35l.69,0Zm1,0h0Zm.27,0h0Zm-.27-1h.25A1,1,0,0,1,32.25,52ZM40,50.34a.45.45,0,0,1,0,.16h0c.25-.16.5-.34.74-.52C40.51,50.11,40.24,50.23,40,50.34ZM31.5,12h0a1,1,0,0,1,.25,0Zm.74-1h0Zm.25,0h0Zm-.24,1a1,1,0,0,1,.25,0h-.25ZM31.5,52h.25A1,1,0,0,1,31.5,52Zm.75,1h0Zm.27,0h0Zm-.27-1h.25A1,1,0,0,1,32.25,52ZM31.5,12v0l.25,0Zm1-1h0Zm-.24,1,.25,0v0ZM31.5,52v0h.25Zm.68,1h0Zm.21,0h0Zm-.14-1h.25v0ZM31.5,12v0l.25,0Zm.75,0,.25,0v0ZM31.5,51.58V52H32C31.85,52,31.68,51.86,31.5,51.58ZM32.18,53h0Zm.07-1h.25v0Zm-.75-.41V52a1,1,0,0,0,.25,0H32C31.85,52,31.68,51.86,31.5,51.58Zm.75.41a1,1,0,0,0,.25,0v0Zm8.56-37.94.08.06v0Zm-17.71,0v0l.08-.06Zm17.79,35.8-.08.06.09,0Zm-.92.45a.45.45,0,0,1,0,.16h0c.25-.16.5-.34.74-.52C40.51,50.11,40.24,50.23,40,50.34ZM23.23,50c.24.18.49.36.74.52h0a.45.45,0,0,1,0-.16C23.76,50.23,23.49,50.11,23.23,50Zm-.12-.09v0l.09,0ZM32.25,52h.25v0Zm-.75-.41V52H32C31.85,52,31.68,51.86,31.5,51.58ZM32.25,12l.25,0v0Zm-.75,0v0l.25,0Zm1-1h0Zm-.25,0h0Zm.14,42h0Zm-.14,0h0Zm8.64-3.09-.08.06.09,0Zm-.92.45a.45.45,0,0,1,0,.16h0c.25-.16.5-.34.74-.52C40.51,50.11,40.24,50.23,40,50.34ZM32.25,52h.25v0Zm0-40,.25,0v0Zm8.56,2,.08.06v0ZM31.5,51.58V52H32C31.85,52,31.68,51.86,31.5,51.58ZM23.23,50c.24.18.49.36.74.52h0a.45.45,0,0,1,0-.16C23.76,50.23,23.49,50.11,23.23,50Zm-.12-.09v0l.09,0Zm0-35.8v0l.08-.06ZM31.5,12v0l.25,0Zm1.75-.95h-.11a2,2,0,0,0-.35,0,.55.55,0,0,0-.18,0H31.55a1.94,1.94,0,0,0-.34,0,2,2,0,0,0-.35,0h-.11a21,21,0,0,0,0,41.88h.46l.34,0h.74s0,0,0,0h.93a21,21,0,0,0,0-41.88ZM31.5,22v5c-.82,0-1.62,0-2.39-.06.07-1.83.19-3.5.34-5C30.12,22,30.8,22,31.5,22Zm-1.95-1.06c.17-1.53.37-2.86.59-4,.45,0,.91.05,1.36.05v4Q30.49,21,29.55,20.94ZM31.5,28v3.5H29c0-1.24,0-2.43.07-3.56Q30.26,28,31.5,28Zm-2.94-7.12a28.07,28.07,0,0,1-3-.44,23.65,23.65,0,0,1,1.5-4,16.68,16.68,0,0,0,2.1.37C28.89,18.1,28.71,19.46,28.56,20.88ZM28,32.5c0,1.37,0,3,.12,4.6-1.3.08-2.57.2-3.8.37a46.64,46.64,0,0,1-.32-5Zm-4-1c0-1.39.09-2.76.23-4.07,1.21.2,2.5.35,3.85.45C28,29.17,28,30.4,28,31.5Zm4.17,6.6c.07,1.34.17,2.7.29,4a27.36,27.36,0,0,0-3.2.46,36.77,36.77,0,0,1-.81-4.15C25.61,38.29,26.85,38.17,28.17,38.1Zm-.05-11.22c-1.35-.09-2.62-.24-3.79-.43h0a38,38,0,0,1,.93-5,27.36,27.36,0,0,0,3.2.46C28.31,23.53,28.19,25.24,28.12,26.88Zm-3.61-6.66a18.22,18.22,0,0,1-1.92-.6A17.57,17.57,0,0,1,25,15.8a9,9,0,0,0,1,.4A24.66,24.66,0,0,0,24.51,20.22Zm-.25.94a37.24,37.24,0,0,0-.93,5.11,26.64,26.64,0,0,1-2.7-.67,25.66,25.66,0,0,1,1.56-5.09A15.28,15.28,0,0,0,24.26,21.16ZM23,32.5a49,49,0,0,0,.32,5.11c-1,.15-1.88.33-2.74.54A31.08,31.08,0,0,1,20,32.5Zm-3-1a31.38,31.38,0,0,1,.44-4.93,27.61,27.61,0,0,0,2.78.68C23.09,28.61,23,30,23,31.5Zm1.28-11.37a26.48,26.48,0,0,0-1.6,5.17,14.28,14.28,0,0,1-2.43-1.09,21.52,21.52,0,0,1,2.45-5,8.19,8.19,0,0,0,1.58.91ZM19.5,26.27A31.56,31.56,0,0,0,19,31.5H16A24.07,24.07,0,0,1,17,25.17,16.83,16.83,0,0,0,19.5,26.27ZM19,32.5a32,32,0,0,0,.61,5.9,18.44,18.44,0,0,0-2.52.88A24.05,24.05,0,0,1,16,32.5Zm.82,6.88a26.84,26.84,0,0,0,1.46,4.49h0a8.19,8.19,0,0,0-1.58.91,20.61,20.61,0,0,1-2.28-4.55A19.78,19.78,0,0,1,19.83,39.38Zm1-.25c.81-.2,1.7-.37,2.65-.53a36.23,36.23,0,0,0,.82,4.24,15.28,15.28,0,0,0-2.07.65A24.46,24.46,0,0,1,20.79,39.13Zm3.72,4.65a24.66,24.66,0,0,0,1.5,4,9,9,0,0,0-1,.4,17.57,17.57,0,0,1-2.38-3.82A18.22,18.22,0,0,1,24.51,43.78Zm1-.22a28.07,28.07,0,0,1,3-.44c.15,1.42.33,2.78.56,4a16.68,16.68,0,0,0-2.1.37A23.65,23.65,0,0,1,25.52,43.56Zm3.59-6.51C29,35.63,29,34.11,29,32.5h2.5V37C30.7,37,29.91,37,29.11,37.05Zm2.39,1v4c-.7,0-1.38,0-2.05.06-.12-1.23-.22-2.56-.3-4C29.91,38,30.69,38,31.5,38Zm0,5v4c-.45,0-.91,0-1.36,0-.22-1.13-.42-2.46-.59-4Q30.49,43,31.5,43Zm0-30.57V16c-.4,0-.79,0-1.16,0A11.82,11.82,0,0,1,31.5,12.43Zm-1.09,0a15.17,15.17,0,0,0-1.09,3.47,14.7,14.7,0,0,1-1.82-.3A8,8,0,0,1,30.41,12.41ZM26.48,15.3c-.29-.09-.56-.18-.81-.28A10.89,10.89,0,0,1,28,13.17,11.72,11.72,0,0,0,26.48,15.3Zm-.71-1.73c-.34.31-.67.63-1,1a1.89,1.89,0,0,1-.27-.2C24.92,14.06,25.34,13.81,25.77,13.57Zm-1.65,1.74a18.8,18.8,0,0,0-2.43,3.93,8.07,8.07,0,0,1-1.42-.83,17.56,17.56,0,0,1,3.4-3.48A4.48,4.48,0,0,0,24.12,15.31Zm-1-1.22v0a17.88,17.88,0,0,0-3.57,3.64,2.25,2.25,0,0,1-.51-1A19.58,19.58,0,0,1,23.1,14.09Zm-4.88,3.42a3.38,3.38,0,0,0,.73,1,22.42,22.42,0,0,0-2.54,5.09A2.9,2.9,0,0,1,15,21.5h0A20.73,20.73,0,0,1,18.22,17.51Zm-3.92,5.2a5.28,5.28,0,0,0,1.78,1.91A25.2,25.2,0,0,0,15,31.5H12A19.62,19.62,0,0,1,14.3,22.71Zm0,18.65A19.61,19.61,0,0,1,12,32.5h3a24.6,24.6,0,0,0,1.19,7.23A4.86,4.86,0,0,0,14.33,41.36Zm3.89,5.13a20.73,20.73,0,0,1-3.24-4h0c0-.6.54-1.22,1.53-1.8A22.25,22.25,0,0,0,19,45.44,3.38,3.38,0,0,0,18.22,46.49Zm.81.72a2.25,2.25,0,0,1,.51-1,17.88,17.88,0,0,0,3.57,3.64v0A19.58,19.58,0,0,1,19,47.21Zm4.64,1.86a17.56,17.56,0,0,1-3.4-3.48,8.07,8.07,0,0,1,1.42-.83,18.8,18.8,0,0,0,2.43,3.93A4.48,4.48,0,0,0,23.67,49.07Zm.84.59a1.89,1.89,0,0,1,.27-.2c.32.34.65.66,1,1C25.34,50.19,24.92,49.94,24.51,49.66ZM25.67,49c.25-.1.52-.19.81-.28A11.72,11.72,0,0,0,28,50.83,10.89,10.89,0,0,1,25.67,49Zm1.83-.56a14.7,14.7,0,0,1,1.82-.3,15.17,15.17,0,0,0,1.09,3.47A8,8,0,0,1,27.5,48.42ZM30.34,48c.37,0,.76,0,1.16,0v3.58A11.8,11.8,0,0,1,30.34,48ZM52,31.5H49a25.2,25.2,0,0,0-1.07-6.88,5.28,5.28,0,0,0,1.78-1.91A19.62,19.62,0,0,1,52,31.5Zm-11,0c0-1.46-.09-2.89-.23-4.25a27.61,27.61,0,0,0,2.78-.68A31.38,31.38,0,0,1,44,31.5Zm3,1a31.08,31.08,0,0,1-.57,5.65c-.86-.21-1.78-.39-2.74-.54A49,49,0,0,0,41,32.5ZM42.71,20.12a8.19,8.19,0,0,0,1.58-.91,21.52,21.52,0,0,1,2.45,5,14.28,14.28,0,0,1-2.43,1.09A26.58,26.58,0,0,0,42.71,20.12Zm.66,5.48a26.64,26.64,0,0,1-2.7.67,37.24,37.24,0,0,0-.93-5.11,15.28,15.28,0,0,0,2.07-.65A25.66,25.66,0,0,1,43.37,25.6ZM35.83,38.1c1.32.07,2.56.19,3.72.35a36.77,36.77,0,0,1-.81,4.15,27.36,27.36,0,0,0-3.2-.46C35.66,40.8,35.76,39.44,35.83,38.1Zm-.29-16.24a27.36,27.36,0,0,0,3.2-.46,38.17,38.17,0,0,1,.93,5.05c-1.17.19-2.44.34-3.79.43C35.81,25.24,35.69,23.53,35.54,21.86Zm.34,15.24c.08-1.65.11-3.23.12-4.6h4a46.64,46.64,0,0,1-.32,5C38.45,37.3,37.18,37.18,35.88,37.1ZM36,31.5c0-1.1,0-2.33-.08-3.62,1.35-.1,2.64-.25,3.85-.45.14,1.31.21,2.68.23,4.07Zm3.49-11.28a24.66,24.66,0,0,0-1.5-4,9,9,0,0,0,1-.4,17.57,17.57,0,0,1,2.38,3.82A18.22,18.22,0,0,1,39.49,20.22Zm-1,.22a28.07,28.07,0,0,1-3,.44c-.15-1.42-.33-2.78-.56-4a16.68,16.68,0,0,0,2.1-.37A23.65,23.65,0,0,1,38.48,20.44ZM35,31.5H32.5V28q1.24,0,2.43-.06C35,29.07,35,30.26,35,31.5Zm-.11-4.56c-.77,0-1.57.06-2.39.06V22c.7,0,1.38,0,2-.06C34.7,23.44,34.82,25.11,34.89,26.94ZM32.5,21V17c.45,0,.91,0,1.36-.05.22,1.13.42,2.46.59,4Q33.5,21,32.5,21Zm0,22q1,0,2,.06c-.17,1.53-.37,2.86-.59,4-.45,0-.91,0-1.36,0Zm0-1V38c.81,0,1.59,0,2.35,0-.08,1.45-.18,2.78-.3,4C33.88,42,33.2,42,32.5,42Zm0-5V32.5H35c0,1.61,0,3.13-.11,4.55C34.09,37,33.3,37,32.5,37Zm2.94,6.12a28.07,28.07,0,0,1,3,.44A23.65,23.65,0,0,1,37,47.51a16.68,16.68,0,0,0-2.1-.37C35.11,45.9,35.29,44.54,35.44,43.12Zm4.05.66a18.22,18.22,0,0,1,1.92.6A17.57,17.57,0,0,1,39,48.2a9,9,0,0,0-1-.4A24.66,24.66,0,0,0,39.49,43.78Zm.25-.94a36.23,36.23,0,0,0,.82-4.24c.95.16,1.84.33,2.65.53a24.46,24.46,0,0,1-1.4,4.36A15.28,15.28,0,0,0,39.74,42.84Zm4.43-3.46a19.78,19.78,0,0,1,2.4.86,20.61,20.61,0,0,1-2.28,4.55,8.19,8.19,0,0,0-1.58-.91A27,27,0,0,0,44.17,39.38Zm.21-1A32,32,0,0,0,45,32.5h3a24.05,24.05,0,0,1-1.09,6.78A18.44,18.44,0,0,0,44.38,38.4ZM45,31.5a31.56,31.56,0,0,0-.49-5.23A16.83,16.83,0,0,0,47,25.17a24.07,24.07,0,0,1,1,6.33Zm.79-14a20.73,20.73,0,0,1,3.24,4h0a2.9,2.9,0,0,1-1.41,2.15,22.42,22.42,0,0,0-2.54-5.09A3.38,3.38,0,0,0,45.78,17.51ZM45,16.79a2.25,2.25,0,0,1-.51,1,17.88,17.88,0,0,0-3.57-3.64v0A19.58,19.58,0,0,1,45,16.79Zm-4.64-1.86a17.56,17.56,0,0,1,3.4,3.48,8.07,8.07,0,0,1-1.42.83,18.8,18.8,0,0,0-2.43-3.93A4.48,4.48,0,0,0,40.33,14.93Zm-.84-.59a1.89,1.89,0,0,1-.27.2c-.32-.34-.65-.66-1-1C38.66,13.81,39.08,14.06,39.49,14.34ZM38.33,15c-.25.1-.52.19-.81.28a11.72,11.72,0,0,0-1.47-2.13A10.89,10.89,0,0,1,38.33,15Zm-1.83.56a14.7,14.7,0,0,1-1.82.3,15.17,15.17,0,0,0-1.09-3.47A8,8,0,0,1,36.5,15.58ZM33.66,16c-.37,0-.76,0-1.16,0V12.43A11.82,11.82,0,0,1,33.66,16ZM32.5,51.58V48c.4,0,.79,0,1.16,0A11.8,11.8,0,0,1,32.5,51.58Zm1.09,0a15.17,15.17,0,0,0,1.09-3.47,14.7,14.7,0,0,1,1.82.3A8,8,0,0,1,33.59,51.59Zm3.93-2.89c.29.09.56.18.81.28a10.89,10.89,0,0,1-2.28,1.85A11.72,11.72,0,0,0,37.52,48.7Zm.71,1.73c.34-.31.67-.63,1-1a1.89,1.89,0,0,1,.27.2C39.08,49.94,38.66,50.19,38.23,50.43Zm4.08-5.67a8.07,8.07,0,0,1,1.42.83,17.56,17.56,0,0,1-3.4,3.48,4.48,4.48,0,0,0-.45-.38A18.8,18.8,0,0,0,42.31,44.76ZM40.9,49.91v0a17.88,17.88,0,0,0,3.57-3.64,2.25,2.25,0,0,1,.51,1A19.58,19.58,0,0,1,40.9,49.91Zm4.88-3.42a3.38,3.38,0,0,0-.73-1.05,22.25,22.25,0,0,0,2.42-4.74c1,.58,1.53,1.2,1.53,1.8h0A20.73,20.73,0,0,1,45.78,46.49Zm3.89-5.13a4.86,4.86,0,0,0-1.87-1.63A24.6,24.6,0,0,0,49,32.5h3A19.61,19.61,0,0,1,49.67,41.36ZM23.23,50c.24.18.49.36.74.52h0a.45.45,0,0,1,0-.16C23.76,50.23,23.49,50.11,23.23,50Zm9,3h0Zm.27,0h0ZM40,50.34a.45.45,0,0,1,0,.16h0c.25-.16.5-.34.74-.52C40.51,50.11,40.24,50.23,40,50.34ZM32.24,11h0Zm.25,0h0Zm.76,0h-.11a2,2,0,0,0-.35,0,.55.55,0,0,0-.18,0H31.55a1.94,1.94,0,0,0-.34,0,2,2,0,0,0-.35,0h-.11a21,21,0,0,0,0,41.88h.11l.69,0h.74s0,0,0,0h.93a21,21,0,0,0,0-41.88ZM31.5,22v5c-.82,0-1.62,0-2.39-.06.07-1.83.19-3.5.34-5C30.12,22,30.8,22,31.5,22Zm-1.95-1.06c.17-1.53.37-2.86.59-4,.45,0,.91.05,1.36.05v4Q30.49,21,29.55,20.94ZM31.5,28v3.5H29c0-1.24,0-2.43.07-3.56Q30.26,28,31.5,28Zm-2.94-7.12a28.07,28.07,0,0,1-3-.44,23.65,23.65,0,0,1,1.5-4,16.68,16.68,0,0,0,2.1.37C28.89,18.1,28.71,19.46,28.56,20.88ZM28,32.5c0,1.37,0,3,.12,4.6-1.3.08-2.57.2-3.8.37a46.64,46.64,0,0,1-.32-5Zm-4-1c0-1.39.09-2.76.23-4.07,1.21.2,2.5.35,3.85.45C28,29.17,28,30.4,28,31.5Zm4.17,6.6c.07,1.34.17,2.7.29,4a27.36,27.36,0,0,0-3.2.46,36.77,36.77,0,0,1-.81-4.15C25.61,38.29,26.85,38.17,28.17,38.1Zm-.05-11.22c-1.35-.09-2.62-.24-3.79-.43h0a38,38,0,0,1,.93-5,27.36,27.36,0,0,0,3.2.46C28.31,23.53,28.19,25.24,28.12,26.88Zm-3.61-6.66a18.22,18.22,0,0,1-1.92-.6A17.57,17.57,0,0,1,25,15.8a9,9,0,0,0,1,.4A24.66,24.66,0,0,0,24.51,20.22Zm-.25.94a37.24,37.24,0,0,0-.93,5.11,26.64,26.64,0,0,1-2.7-.67,25.66,25.66,0,0,1,1.56-5.09A15.28,15.28,0,0,0,24.26,21.16ZM23,32.5a49,49,0,0,0,.32,5.11c-1,.15-1.88.33-2.74.54A31.08,31.08,0,0,1,20,32.5Zm-3-1a31.38,31.38,0,0,1,.44-4.93,27.61,27.61,0,0,0,2.78.68C23.09,28.61,23,30,23,31.5Zm1.28-11.37a26.48,26.48,0,0,0-1.6,5.17,14.28,14.28,0,0,1-2.43-1.09,21.52,21.52,0,0,1,2.45-5,8.19,8.19,0,0,0,1.58.91ZM19.5,26.27A31.56,31.56,0,0,0,19,31.5H16A24.07,24.07,0,0,1,17,25.17,16.83,16.83,0,0,0,19.5,26.27ZM19,32.5a32,32,0,0,0,.61,5.9,18.44,18.44,0,0,0-2.52.88A24.05,24.05,0,0,1,16,32.5Zm.82,6.88a26.84,26.84,0,0,0,1.46,4.49h0a8.19,8.19,0,0,0-1.58.91,20.61,20.61,0,0,1-2.28-4.55A19.78,19.78,0,0,1,19.83,39.38Zm1-.25c.81-.2,1.7-.37,2.65-.53a36.23,36.23,0,0,0,.82,4.24,15.28,15.28,0,0,0-2.07.65A24.46,24.46,0,0,1,20.79,39.13Zm3.72,4.65a24.66,24.66,0,0,0,1.5,4,9,9,0,0,0-1,.4,17.57,17.57,0,0,1-2.38-3.82A18.22,18.22,0,0,1,24.51,43.78Zm1-.22a28.07,28.07,0,0,1,3-.44c.15,1.42.33,2.78.56,4a16.68,16.68,0,0,0-2.1.37A23.65,23.65,0,0,1,25.52,43.56Zm3.59-6.51C29,35.63,29,34.11,29,32.5h2.5V37C30.7,37,29.91,37,29.11,37.05Zm2.39,1v4c-.7,0-1.38,0-2.05.06-.12-1.23-.22-2.56-.3-4C29.91,38,30.69,38,31.5,38Zm0,5v4c-.45,0-.91,0-1.36,0-.22-1.13-.42-2.46-.59-4Q30.49,43,31.5,43Zm0-30.57V16c-.4,0-.79,0-1.16,0A11.82,11.82,0,0,1,31.5,12.43Zm-1.09,0a15.17,15.17,0,0,0-1.09,3.47,14.7,14.7,0,0,1-1.82-.3A8,8,0,0,1,30.41,12.41ZM26.48,15.3c-.29-.09-.56-.18-.81-.28A10.89,10.89,0,0,1,28,13.17,11.72,11.72,0,0,0,26.48,15.3Zm-.71-1.73c-.34.31-.67.63-1,1a1.89,1.89,0,0,1-.27-.2C24.92,14.06,25.34,13.81,25.77,13.57Zm-1.65,1.74a18.8,18.8,0,0,0-2.43,3.93,8.07,8.07,0,0,1-1.42-.83,17.56,17.56,0,0,1,3.4-3.48A4.48,4.48,0,0,0,24.12,15.31Zm-1-1.22v0a17.88,17.88,0,0,0-3.57,3.64,2.25,2.25,0,0,1-.51-1A19.58,19.58,0,0,1,23.1,14.09Zm-4.88,3.42a3.38,3.38,0,0,0,.73,1,22.42,22.42,0,0,0-2.54,5.09A2.9,2.9,0,0,1,15,21.5h0A20.73,20.73,0,0,1,18.22,17.51Zm-3.92,5.2a5.28,5.28,0,0,0,1.78,1.91A25.2,25.2,0,0,0,15,31.5H12A19.62,19.62,0,0,1,14.3,22.71Zm0,18.65A19.61,19.61,0,0,1,12,32.5h3a24.6,24.6,0,0,0,1.19,7.23A4.86,4.86,0,0,0,14.33,41.36Zm3.89,5.13a20.73,20.73,0,0,1-3.24-4h0c0-.6.54-1.22,1.53-1.8A22.25,22.25,0,0,0,19,45.44,3.38,3.38,0,0,0,18.22,46.49Zm.81.72a2.25,2.25,0,0,1,.51-1,17.88,17.88,0,0,0,3.57,3.64v0A19.58,19.58,0,0,1,19,47.21Zm4.64,1.86a17.56,17.56,0,0,1-3.4-3.48,8.07,8.07,0,0,1,1.42-.83,18.8,18.8,0,0,0,2.43,3.93A4.48,4.48,0,0,0,23.67,49.07Zm.84.59a1.89,1.89,0,0,1,.27-.2c.32.34.65.66,1,1C25.34,50.19,24.92,49.94,24.51,49.66ZM25.67,49c.25-.1.52-.19.81-.28A11.72,11.72,0,0,0,28,50.83,10.89,10.89,0,0,1,25.67,49Zm1.83-.56a14.7,14.7,0,0,1,1.82-.3,15.17,15.17,0,0,0,1.09,3.47A8,8,0,0,1,27.5,48.42ZM30.34,48c.37,0,.76,0,1.16,0v3.58A11.8,11.8,0,0,1,30.34,48ZM52,31.5H49a25.2,25.2,0,0,0-1.07-6.88,5.28,5.28,0,0,0,1.78-1.91A19.62,19.62,0,0,1,52,31.5Zm-11,0c0-1.46-.09-2.89-.23-4.25a27.61,27.61,0,0,0,2.78-.68A31.38,31.38,0,0,1,44,31.5Zm3,1a31.08,31.08,0,0,1-.57,5.65c-.86-.21-1.78-.39-2.74-.54A49,49,0,0,0,41,32.5ZM42.71,20.12a8.19,8.19,0,0,0,1.58-.91,21.52,21.52,0,0,1,2.45,5,14.28,14.28,0,0,1-2.43,1.09A26.58,26.58,0,0,0,42.71,20.12Zm.66,5.48a26.64,26.64,0,0,1-2.7.67,37.24,37.24,0,0,0-.93-5.11,15.28,15.28,0,0,0,2.07-.65A25.66,25.66,0,0,1,43.37,25.6ZM35.83,38.1c1.32.07,2.56.19,3.72.35a36.77,36.77,0,0,1-.81,4.15,27.36,27.36,0,0,0-3.2-.46C35.66,40.8,35.76,39.44,35.83,38.1Zm-.29-16.24a27.36,27.36,0,0,0,3.2-.46,38.17,38.17,0,0,1,.93,5.05c-1.17.19-2.44.34-3.79.43C35.81,25.24,35.69,23.53,35.54,21.86Zm.34,15.24c.08-1.65.11-3.23.12-4.6h4a46.64,46.64,0,0,1-.32,5C38.45,37.3,37.18,37.18,35.88,37.1ZM36,31.5c0-1.1,0-2.33-.08-3.62,1.35-.1,2.64-.25,3.85-.45.14,1.31.21,2.68.23,4.07Zm3.49-11.28a24.66,24.66,0,0,0-1.5-4,9,9,0,0,0,1-.4,17.57,17.57,0,0,1,2.38,3.82A18.22,18.22,0,0,1,39.49,20.22Zm-1,.22a28.07,28.07,0,0,1-3,.44c-.15-1.42-.33-2.78-.56-4a16.68,16.68,0,0,0,2.1-.37A23.65,23.65,0,0,1,38.48,20.44ZM35,31.5H32.5V28q1.24,0,2.43-.06C35,29.07,35,30.26,35,31.5Zm-.11-4.56c-.77,0-1.57.06-2.39.06V22c.7,0,1.38,0,2-.06C34.7,23.44,34.82,25.11,34.89,26.94ZM32.5,21V17c.45,0,.91,0,1.36-.05.22,1.13.42,2.46.59,4Q33.5,21,32.5,21Zm0,22q1,0,2,.06c-.17,1.53-.37,2.86-.59,4-.45,0-.91,0-1.36,0Zm0-1V38c.81,0,1.59,0,2.35,0-.08,1.45-.18,2.78-.3,4C33.88,42,33.2,42,32.5,42Zm0-5V32.5H35c0,1.61,0,3.13-.11,4.55C34.09,37,33.3,37,32.5,37Zm2.94,6.12a28.07,28.07,0,0,1,3,.44A23.65,23.65,0,0,1,37,47.51a16.68,16.68,0,0,0-2.1-.37C35.11,45.9,35.29,44.54,35.44,43.12Zm4.05.66a18.22,18.22,0,0,1,1.92.6A17.57,17.57,0,0,1,39,48.2a9,9,0,0,0-1-.4A24.66,24.66,0,0,0,39.49,43.78Zm.25-.94a36.23,36.23,0,0,0,.82-4.24c.95.16,1.84.33,2.65.53a24.46,24.46,0,0,1-1.4,4.36A15.28,15.28,0,0,0,39.74,42.84Zm4.43-3.46a19.78,19.78,0,0,1,2.4.86,20.61,20.61,0,0,1-2.28,4.55,8.19,8.19,0,0,0-1.58-.91A27,27,0,0,0,44.17,39.38Zm.21-1A32,32,0,0,0,45,32.5h3a24.05,24.05,0,0,1-1.09,6.78A18.44,18.44,0,0,0,44.38,38.4ZM45,31.5a31.56,31.56,0,0,0-.49-5.23A16.83,16.83,0,0,0,47,25.17a24.07,24.07,0,0,1,1,6.33Zm.79-14a20.73,20.73,0,0,1,3.24,4h0a2.9,2.9,0,0,1-1.41,2.15,22.42,22.42,0,0,0-2.54-5.09A3.38,3.38,0,0,0,45.78,17.51ZM45,16.79a2.25,2.25,0,0,1-.51,1,17.88,17.88,0,0,0-3.57-3.64v0A19.58,19.58,0,0,1,45,16.79Zm-4.64-1.86a17.56,17.56,0,0,1,3.4,3.48,8.07,8.07,0,0,1-1.42.83,18.8,18.8,0,0,0-2.43-3.93A4.48,4.48,0,0,0,40.33,14.93Zm-.84-.59a1.89,1.89,0,0,1-.27.2c-.32-.34-.65-.66-1-1C38.66,13.81,39.08,14.06,39.49,14.34ZM38.33,15c-.25.1-.52.19-.81.28a11.72,11.72,0,0,0-1.47-2.13A10.89,10.89,0,0,1,38.33,15Zm-1.83.56a14.7,14.7,0,0,1-1.82.3,15.17,15.17,0,0,0-1.09-3.47A8,8,0,0,1,36.5,15.58ZM33.66,16c-.37,0-.76,0-1.16,0V12.43A11.82,11.82,0,0,1,33.66,16ZM32.5,51.58V48c.4,0,.79,0,1.16,0A11.8,11.8,0,0,1,32.5,51.58Zm1.09,0a15.17,15.17,0,0,0,1.09-3.47,14.7,14.7,0,0,1,1.82.3A8,8,0,0,1,33.59,51.59Zm3.93-2.89c.29.09.56.18.81.28a10.89,10.89,0,0,1-2.28,1.85A11.72,11.72,0,0,0,37.52,48.7Zm.71,1.73c.34-.31.67-.63,1-1a1.89,1.89,0,0,1,.27.2C39.08,49.94,38.66,50.19,38.23,50.43Zm4.08-5.67a8.07,8.07,0,0,1,1.42.83,17.56,17.56,0,0,1-3.4,3.48,4.48,4.48,0,0,0-.45-.38A18.8,18.8,0,0,0,42.31,44.76ZM40.9,49.91v0a17.88,17.88,0,0,0,3.57-3.64,2.25,2.25,0,0,1,.51,1A19.58,19.58,0,0,1,40.9,49.91Zm4.88-3.42a3.38,3.38,0,0,0-.73-1.05,22.25,22.25,0,0,0,2.42-4.74c1,.58,1.53,1.2,1.53,1.8h0A20.73,20.73,0,0,1,45.78,46.49Zm3.89-5.13a4.86,4.86,0,0,0-1.87-1.63A24.6,24.6,0,0,0,49,32.5h3A19.61,19.61,0,0,1,49.67,41.36ZM32,6A26,26,0,1,0,58,32,26,26,0,0,0,32,6Zm0,51A25,25,0,1,1,57,32,25,25,0,0,1,32,57Zm1.25-45.94h-.11a2,2,0,0,0-.35,0,.55.55,0,0,0-.18,0H31.55a1.94,1.94,0,0,0-.34,0,2,2,0,0,0-.35,0h-.11a21,21,0,0,0,0,41.88h.11l.69,0h.74s0,0,0,0h.93a21,21,0,0,0,0-41.88ZM31.5,22v5c-.82,0-1.62,0-2.39-.06.07-1.83.19-3.5.34-5C30.12,22,30.8,22,31.5,22Zm-1.95-1.06c.17-1.53.37-2.86.59-4,.45,0,.91.05,1.36.05v4Q30.49,21,29.55,20.94ZM31.5,28v3.5H29c0-1.24,0-2.43.07-3.56Q30.26,28,31.5,28Zm-2.94-7.12a28.07,28.07,0,0,1-3-.44,23.65,23.65,0,0,1,1.5-4,16.68,16.68,0,0,0,2.1.37C28.89,18.1,28.71,19.46,28.56,20.88ZM28,32.5c0,1.37,0,3,.12,4.6-1.3.08-2.57.2-3.8.37a46.64,46.64,0,0,1-.32-5Zm-4-1c0-1.39.09-2.76.23-4.07,1.21.2,2.5.35,3.85.45C28,29.17,28,30.4,28,31.5Zm4.17,6.6c.07,1.34.17,2.7.29,4a27.36,27.36,0,0,0-3.2.46,36.77,36.77,0,0,1-.81-4.15C25.61,38.29,26.85,38.17,28.17,38.1Zm-.05-11.22c-1.35-.09-2.62-.24-3.79-.43h0a38,38,0,0,1,.93-5,27.36,27.36,0,0,0,3.2.46C28.31,23.53,28.19,25.24,28.12,26.88Zm-3.61-6.66a18.22,18.22,0,0,1-1.92-.6A17.57,17.57,0,0,1,25,15.8a9,9,0,0,0,1,.4A24.66,24.66,0,0,0,24.51,20.22Zm-.25.94a37.24,37.24,0,0,0-.93,5.11,26.64,26.64,0,0,1-2.7-.67,25.66,25.66,0,0,1,1.56-5.09A15.28,15.28,0,0,0,24.26,21.16ZM23,32.5a49,49,0,0,0,.32,5.11c-1,.15-1.88.33-2.74.54A31.08,31.08,0,0,1,20,32.5Zm-3-1a31.38,31.38,0,0,1,.44-4.93,27.61,27.61,0,0,0,2.78.68C23.09,28.61,23,30,23,31.5Zm1.28-11.37a26.48,26.48,0,0,0-1.6,5.17,14.28,14.28,0,0,1-2.43-1.09,21.52,21.52,0,0,1,2.45-5,8.19,8.19,0,0,0,1.58.91ZM19.5,26.27A31.56,31.56,0,0,0,19,31.5H16A24.07,24.07,0,0,1,17,25.17,16.83,16.83,0,0,0,19.5,26.27ZM19,32.5a32,32,0,0,0,.61,5.9,18.44,18.44,0,0,0-2.52.88A24.05,24.05,0,0,1,16,32.5Zm.82,6.88a26.84,26.84,0,0,0,1.46,4.49h0a8.19,8.19,0,0,0-1.58.91,20.61,20.61,0,0,1-2.28-4.55A19.78,19.78,0,0,1,19.83,39.38Zm1-.25c.81-.2,1.7-.37,2.65-.53a36.23,36.23,0,0,0,.82,4.24,15.28,15.28,0,0,0-2.07.65A24.46,24.46,0,0,1,20.79,39.13Zm3.72,4.65a24.66,24.66,0,0,0,1.5,4,9,9,0,0,0-1,.4,17.57,17.57,0,0,1-2.38-3.82A18.22,18.22,0,0,1,24.51,43.78Zm1-.22a28.07,28.07,0,0,1,3-.44c.15,1.42.33,2.78.56,4a16.68,16.68,0,0,0-2.1.37A23.65,23.65,0,0,1,25.52,43.56Zm3.59-6.51C29,35.63,29,34.11,29,32.5h2.5V37C30.7,37,29.91,37,29.11,37.05Zm2.39,1v4c-.7,0-1.38,0-2.05.06-.12-1.23-.22-2.56-.3-4C29.91,38,30.69,38,31.5,38Zm0,5v4c-.45,0-.91,0-1.36,0-.22-1.13-.42-2.46-.59-4Q30.49,43,31.5,43Zm0-30.57V16c-.4,0-.79,0-1.16,0A11.82,11.82,0,0,1,31.5,12.43Zm-1.09,0a15.17,15.17,0,0,0-1.09,3.47,14.7,14.7,0,0,1-1.82-.3A8,8,0,0,1,30.41,12.41ZM26.48,15.3c-.29-.09-.56-.18-.81-.28A10.89,10.89,0,0,1,28,13.17,11.72,11.72,0,0,0,26.48,15.3Zm-.71-1.73c-.34.31-.67.63-1,1a1.89,1.89,0,0,1-.27-.2C24.92,14.06,25.34,13.81,25.77,13.57Zm-1.65,1.74a18.8,18.8,0,0,0-2.43,3.93,8.07,8.07,0,0,1-1.42-.83,17.56,17.56,0,0,1,3.4-3.48A4.48,4.48,0,0,0,24.12,15.31Zm-1-1.22v0a17.88,17.88,0,0,0-3.57,3.64,2.25,2.25,0,0,1-.51-1A19.58,19.58,0,0,1,23.1,14.09Zm-4.88,3.42a3.38,3.38,0,0,0,.73,1,22.42,22.42,0,0,0-2.54,5.09A2.9,2.9,0,0,1,15,21.5h0A20.73,20.73,0,0,1,18.22,17.51Zm-3.92,5.2a5.28,5.28,0,0,0,1.78,1.91A25.2,25.2,0,0,0,15,31.5H12A19.62,19.62,0,0,1,14.3,22.71Zm0,18.65A19.61,19.61,0,0,1,12,32.5h3a24.6,24.6,0,0,0,1.19,7.23A4.86,4.86,0,0,0,14.33,41.36Zm3.89,5.13a20.73,20.73,0,0,1-3.24-4h0c0-.6.54-1.22,1.53-1.8A22.25,22.25,0,0,0,19,45.44,3.38,3.38,0,0,0,18.22,46.49Zm.81.72a2.25,2.25,0,0,1,.51-1,17.88,17.88,0,0,0,3.57,3.64v0A19.58,19.58,0,0,1,19,47.21Zm4.64,1.86a17.56,17.56,0,0,1-3.4-3.48,8.07,8.07,0,0,1,1.42-.83,18.8,18.8,0,0,0,2.43,3.93A4.48,4.48,0,0,0,23.67,49.07Zm.84.59a1.89,1.89,0,0,1,.27-.2c.32.34.65.66,1,1C25.34,50.19,24.92,49.94,24.51,49.66ZM25.67,49c.25-.1.52-.19.81-.28A11.72,11.72,0,0,0,28,50.83,10.89,10.89,0,0,1,25.67,49Zm1.83-.56a14.7,14.7,0,0,1,1.82-.3,15.17,15.17,0,0,0,1.09,3.47A8,8,0,0,1,27.5,48.42ZM30.34,48c.37,0,.76,0,1.16,0v3.58A11.8,11.8,0,0,1,30.34,48ZM52,31.5H49a25.2,25.2,0,0,0-1.07-6.88,5.28,5.28,0,0,0,1.78-1.91A19.62,19.62,0,0,1,52,31.5Zm-11,0c0-1.46-.09-2.89-.23-4.25a27.61,27.61,0,0,0,2.78-.68A31.38,31.38,0,0,1,44,31.5Zm3,1a31.08,31.08,0,0,1-.57,5.65c-.86-.21-1.78-.39-2.74-.54A49,49,0,0,0,41,32.5ZM42.71,20.12a8.19,8.19,0,0,0,1.58-.91,21.52,21.52,0,0,1,2.45,5,14.28,14.28,0,0,1-2.43,1.09A26.58,26.58,0,0,0,42.71,20.12Zm.66,5.48a26.64,26.64,0,0,1-2.7.67,37.24,37.24,0,0,0-.93-5.11,15.28,15.28,0,0,0,2.07-.65A25.66,25.66,0,0,1,43.37,25.6ZM35.83,38.1c1.32.07,2.56.19,3.72.35a36.77,36.77,0,0,1-.81,4.15,27.36,27.36,0,0,0-3.2-.46C35.66,40.8,35.76,39.44,35.83,38.1Zm-.29-16.24a27.36,27.36,0,0,0,3.2-.46,38.17,38.17,0,0,1,.93,5.05c-1.17.19-2.44.34-3.79.43C35.81,25.24,35.69,23.53,35.54,21.86Zm.34,15.24c.08-1.65.11-3.23.12-4.6h4a46.64,46.64,0,0,1-.32,5C38.45,37.3,37.18,37.18,35.88,37.1ZM36,31.5c0-1.1,0-2.33-.08-3.62,1.35-.1,2.64-.25,3.85-.45.14,1.31.21,2.68.23,4.07Zm3.49-11.28a24.66,24.66,0,0,0-1.5-4,9,9,0,0,0,1-.4,17.57,17.57,0,0,1,2.38,3.82A18.22,18.22,0,0,1,39.49,20.22Zm-1,.22a28.07,28.07,0,0,1-3,.44c-.15-1.42-.33-2.78-.56-4a16.68,16.68,0,0,0,2.1-.37A23.65,23.65,0,0,1,38.48,20.44ZM35,31.5H32.5V28q1.24,0,2.43-.06C35,29.07,35,30.26,35,31.5Zm-.11-4.56c-.77,0-1.57.06-2.39.06V22c.7,0,1.38,0,2-.06C34.7,23.44,34.82,25.11,34.89,26.94ZM32.5,21V17c.45,0,.91,0,1.36-.05.22,1.13.42,2.46.59,4Q33.5,21,32.5,21Zm0,22q1,0,2,.06c-.17,1.53-.37,2.86-.59,4-.45,0-.91,0-1.36,0Zm0-1V38c.81,0,1.59,0,2.35,0-.08,1.45-.18,2.78-.3,4C33.88,42,33.2,42,32.5,42Zm0-5V32.5H35c0,1.61,0,3.13-.11,4.55C34.09,37,33.3,37,32.5,37Zm2.94,6.12a28.07,28.07,0,0,1,3,.44A23.65,23.65,0,0,1,37,47.51a16.68,16.68,0,0,0-2.1-.37C35.11,45.9,35.29,44.54,35.44,43.12Zm4.05.66a18.22,18.22,0,0,1,1.92.6A17.57,17.57,0,0,1,39,48.2a9,9,0,0,0-1-.4A24.66,24.66,0,0,0,39.49,43.78Zm.25-.94a36.23,36.23,0,0,0,.82-4.24c.95.16,1.84.33,2.65.53a24.46,24.46,0,0,1-1.4,4.36A15.28,15.28,0,0,0,39.74,42.84Zm4.43-3.46a19.78,19.78,0,0,1,2.4.86,20.61,20.61,0,0,1-2.28,4.55,8.19,8.19,0,0,0-1.58-.91A27,27,0,0,0,44.17,39.38Zm.21-1A32,32,0,0,0,45,32.5h3a24.05,24.05,0,0,1-1.09,6.78A18.44,18.44,0,0,0,44.38,38.4ZM45,31.5a31.56,31.56,0,0,0-.49-5.23A16.83,16.83,0,0,0,47,25.17a24.07,24.07,0,0,1,1,6.33Zm.79-14a20.73,20.73,0,0,1,3.24,4h0a2.9,2.9,0,0,1-1.41,2.15,22.42,22.42,0,0,0-2.54-5.09A3.38,3.38,0,0,0,45.78,17.51ZM45,16.79a2.25,2.25,0,0,1-.51,1,17.88,17.88,0,0,0-3.57-3.64v0A19.58,19.58,0,0,1,45,16.79Zm-4.64-1.86a17.56,17.56,0,0,1,3.4,3.48,8.07,8.07,0,0,1-1.42.83,18.8,18.8,0,0,0-2.43-3.93A4.48,4.48,0,0,0,40.33,14.93Zm-.84-.59a1.89,1.89,0,0,1-.27.2c-.32-.34-.65-.66-1-1C38.66,13.81,39.08,14.06,39.49,14.34ZM38.33,15c-.25.1-.52.19-.81.28a11.72,11.72,0,0,0-1.47-2.13A10.89,10.89,0,0,1,38.33,15Zm-1.83.56a14.7,14.7,0,0,1-1.82.3,15.17,15.17,0,0,0-1.09-3.47A8,8,0,0,1,36.5,15.58ZM33.66,16c-.37,0-.76,0-1.16,0V12.43A11.82,11.82,0,0,1,33.66,16ZM32.5,51.58V48c.4,0,.79,0,1.16,0A11.8,11.8,0,0,1,32.5,51.58Zm1.09,0a15.17,15.17,0,0,0,1.09-3.47,14.7,14.7,0,0,1,1.82.3A8,8,0,0,1,33.59,51.59Zm3.93-2.89c.29.09.56.18.81.28a10.89,10.89,0,0,1-2.28,1.85A11.72,11.72,0,0,0,37.52,48.7Zm.71,1.73c.34-.31.67-.63,1-1a1.89,1.89,0,0,1,.27.2C39.08,49.94,38.66,50.19,38.23,50.43Zm4.08-5.67a8.07,8.07,0,0,1,1.42.83,17.56,17.56,0,0,1-3.4,3.48,4.48,4.48,0,0,0-.45-.38A18.8,18.8,0,0,0,42.31,44.76ZM40.9,49.91v0a17.88,17.88,0,0,0,3.57-3.64,2.25,2.25,0,0,1,.51,1A19.58,19.58,0,0,1,40.9,49.91Zm4.88-3.42a3.38,3.38,0,0,0-.73-1.05,22.25,22.25,0,0,0,2.42-4.74c1,.58,1.53,1.2,1.53,1.8h0A20.73,20.73,0,0,1,45.78,46.49Zm3.89-5.13a4.86,4.86,0,0,0-1.87-1.63A24.6,24.6,0,0,0,49,32.5h3A19.61,19.61,0,0,1,49.67,41.36ZM32,6A26,26,0,1,0,58,32,26,26,0,0,0,32,6Zm0,51A25,25,0,1,1,57,32,25,25,0,0,1,32,57Zm1.25-45.94h-.11a2,2,0,0,0-.35,0,.55.55,0,0,0-.18,0H31.55a1.94,1.94,0,0,0-.34,0,2,2,0,0,0-.35,0h-.11a21,21,0,0,0,0,41.88h.11l.69,0h.74s0,0,0,0h.93a21,21,0,0,0,0-41.88ZM31.5,22v5c-.82,0-1.62,0-2.39-.06.07-1.83.19-3.5.34-5C30.12,22,30.8,22,31.5,22Zm-1.95-1.06c.17-1.53.37-2.86.59-4,.45,0,.91.05,1.36.05v4Q30.49,21,29.55,20.94ZM31.5,28v3.5H29c0-1.24,0-2.43.07-3.56Q30.26,28,31.5,28Zm-2.94-7.12a28.07,28.07,0,0,1-3-.44,23.65,23.65,0,0,1,1.5-4,16.68,16.68,0,0,0,2.1.37C28.89,18.1,28.71,19.46,28.56,20.88ZM28,32.5c0,1.37,0,3,.12,4.6-1.3.08-2.57.2-3.8.37a46.64,46.64,0,0,1-.32-5Zm-4-1c0-1.39.09-2.76.23-4.07,1.21.2,2.5.35,3.85.45C28,29.17,28,30.4,28,31.5Zm4.17,6.6c.07,1.34.17,2.7.29,4a27.36,27.36,0,0,0-3.2.46,36.77,36.77,0,0,1-.81-4.15C25.61,38.29,26.85,38.17,28.17,38.1Zm-.05-11.22c-1.35-.09-2.62-.24-3.79-.43h0a38,38,0,0,1,.93-5,27.36,27.36,0,0,0,3.2.46C28.31,23.53,28.19,25.24,28.12,26.88Zm-3.61-6.66a18.22,18.22,0,0,1-1.92-.6A17.57,17.57,0,0,1,25,15.8a9,9,0,0,0,1,.4A24.66,24.66,0,0,0,24.51,20.22Zm-.25.94a37.24,37.24,0,0,0-.93,5.11,26.64,26.64,0,0,1-2.7-.67,25.66,25.66,0,0,1,1.56-5.09A15.28,15.28,0,0,0,24.26,21.16ZM23,32.5a49,49,0,0,0,.32,5.11c-1,.15-1.88.33-2.74.54A31.08,31.08,0,0,1,20,32.5Zm-3-1a31.38,31.38,0,0,1,.44-4.93,27.61,27.61,0,0,0,2.78.68C23.09,28.61,23,30,23,31.5Zm1.28-11.37a26.48,26.48,0,0,0-1.6,5.17,14.28,14.28,0,0,1-2.43-1.09,21.52,21.52,0,0,1,2.45-5,8.19,8.19,0,0,0,1.58.91ZM19.5,26.27A31.56,31.56,0,0,0,19,31.5H16A24.07,24.07,0,0,1,17,25.17,16.83,16.83,0,0,0,19.5,26.27ZM19,32.5a32,32,0,0,0,.61,5.9,18.44,18.44,0,0,0-2.52.88A24.05,24.05,0,0,1,16,32.5Zm.82,6.88a26.84,26.84,0,0,0,1.46,4.49h0a8.19,8.19,0,0,0-1.58.91,20.61,20.61,0,0,1-2.28-4.55A19.78,19.78,0,0,1,19.83,39.38Zm1-.25c.81-.2,1.7-.37,2.65-.53a36.23,36.23,0,0,0,.82,4.24,15.28,15.28,0,0,0-2.07.65A24.46,24.46,0,0,1,20.79,39.13Zm3.72,4.65a24.66,24.66,0,0,0,1.5,4,9,9,0,0,0-1,.4,17.57,17.57,0,0,1-2.38-3.82A18.22,18.22,0,0,1,24.51,43.78Zm1-.22a28.07,28.07,0,0,1,3-.44c.15,1.42.33,2.78.56,4a16.68,16.68,0,0,0-2.1.37A23.65,23.65,0,0,1,25.52,43.56Zm3.59-6.51C29,35.63,29,34.11,29,32.5h2.5V37C30.7,37,29.91,37,29.11,37.05Zm2.39,1v4c-.7,0-1.38,0-2.05.06-.12-1.23-.22-2.56-.3-4C29.91,38,30.69,38,31.5,38Zm0,5v4c-.45,0-.91,0-1.36,0-.22-1.13-.42-2.46-.59-4Q30.49,43,31.5,43Zm0-30.57V16c-.4,0-.79,0-1.16,0A11.82,11.82,0,0,1,31.5,12.43Zm-1.09,0a15.17,15.17,0,0,0-1.09,3.47,14.7,14.7,0,0,1-1.82-.3A8,8,0,0,1,30.41,12.41ZM26.48,15.3c-.29-.09-.56-.18-.81-.28A10.89,10.89,0,0,1,28,13.17,11.72,11.72,0,0,0,26.48,15.3Zm-.71-1.73c-.34.31-.67.63-1,1a1.89,1.89,0,0,1-.27-.2C24.92,14.06,25.34,13.81,25.77,13.57Zm-1.65,1.74a18.8,18.8,0,0,0-2.43,3.93,8.07,8.07,0,0,1-1.42-.83,17.56,17.56,0,0,1,3.4-3.48A4.48,4.48,0,0,0,24.12,15.31Zm-1-1.22v0a17.88,17.88,0,0,0-3.57,3.64,2.25,2.25,0,0,1-.51-1A19.58,19.58,0,0,1,23.1,14.09Zm-4.88,3.42a3.38,3.38,0,0,0,.73,1,22.42,22.42,0,0,0-2.54,5.09A2.9,2.9,0,0,1,15,21.5h0A20.73,20.73,0,0,1,18.22,17.51Zm-3.92,5.2a5.28,5.28,0,0,0,1.78,1.91A25.2,25.2,0,0,0,15,31.5H12A19.62,19.62,0,0,1,14.3,22.71Zm0,18.65A19.61,19.61,0,0,1,12,32.5h3a24.6,24.6,0,0,0,1.19,7.23A4.86,4.86,0,0,0,14.33,41.36Zm3.89,5.13a20.73,20.73,0,0,1-3.24-4h0c0-.6.54-1.22,1.53-1.8A22.25,22.25,0,0,0,19,45.44,3.38,3.38,0,0,0,18.22,46.49Zm.81.72a2.25,2.25,0,0,1,.51-1,17.88,17.88,0,0,0,3.57,3.64v0A19.58,19.58,0,0,1,19,47.21Zm4.64,1.86a17.56,17.56,0,0,1-3.4-3.48,8.07,8.07,0,0,1,1.42-.83,18.8,18.8,0,0,0,2.43,3.93A4.48,4.48,0,0,0,23.67,49.07Zm.84.59a1.89,1.89,0,0,1,.27-.2c.32.34.65.66,1,1C25.34,50.19,24.92,49.94,24.51,49.66ZM25.67,49c.25-.1.52-.19.81-.28A11.72,11.72,0,0,0,28,50.83,10.89,10.89,0,0,1,25.67,49Zm1.83-.56a14.7,14.7,0,0,1,1.82-.3,15.17,15.17,0,0,0,1.09,3.47A8,8,0,0,1,27.5,48.42ZM30.34,48c.37,0,.76,0,1.16,0v3.58A11.8,11.8,0,0,1,30.34,48ZM52,31.5H49a25.2,25.2,0,0,0-1.07-6.88,5.28,5.28,0,0,0,1.78-1.91A19.62,19.62,0,0,1,52,31.5Zm-11,0c0-1.46-.09-2.89-.23-4.25a27.61,27.61,0,0,0,2.78-.68A31.38,31.38,0,0,1,44,31.5Zm3,1a31.08,31.08,0,0,1-.57,5.65c-.86-.21-1.78-.39-2.74-.54A49,49,0,0,0,41,32.5ZM42.71,20.12a8.19,8.19,0,0,0,1.58-.91,21.52,21.52,0,0,1,2.45,5,14.28,14.28,0,0,1-2.43,1.09A26.58,26.58,0,0,0,42.71,20.12Zm.66,5.48a26.64,26.64,0,0,1-2.7.67,37.24,37.24,0,0,0-.93-5.11,15.28,15.28,0,0,0,2.07-.65A25.66,25.66,0,0,1,43.37,25.6ZM35.83,38.1c1.32.07,2.56.19,3.72.35a36.77,36.77,0,0,1-.81,4.15,27.36,27.36,0,0,0-3.2-.46C35.66,40.8,35.76,39.44,35.83,38.1Zm-.29-16.24a27.36,27.36,0,0,0,3.2-.46,38.17,38.17,0,0,1,.93,5.05c-1.17.19-2.44.34-3.79.43C35.81,25.24,35.69,23.53,35.54,21.86Zm.34,15.24c.08-1.65.11-3.23.12-4.6h4a46.64,46.64,0,0,1-.32,5C38.45,37.3,37.18,37.18,35.88,37.1ZM36,31.5c0-1.1,0-2.33-.08-3.62,1.35-.1,2.64-.25,3.85-.45.14,1.31.21,2.68.23,4.07Zm3.49-11.28a24.66,24.66,0,0,0-1.5-4,9,9,0,0,0,1-.4,17.57,17.57,0,0,1,2.38,3.82A18.22,18.22,0,0,1,39.49,20.22Zm-1,.22a28.07,28.07,0,0,1-3,.44c-.15-1.42-.33-2.78-.56-4a16.68,16.68,0,0,0,2.1-.37A23.65,23.65,0,0,1,38.48,20.44ZM35,31.5H32.5V28q1.24,0,2.43-.06C35,29.07,35,30.26,35,31.5Zm-.11-4.56c-.77,0-1.57.06-2.39.06V22c.7,0,1.38,0,2-.06C34.7,23.44,34.82,25.11,34.89,26.94ZM32.5,21V17c.45,0,.91,0,1.36-.05.22,1.13.42,2.46.59,4Q33.5,21,32.5,21Zm0,22q1,0,2,.06c-.17,1.53-.37,2.86-.59,4-.45,0-.91,0-1.36,0Zm0-1V38c.81,0,1.59,0,2.35,0-.08,1.45-.18,2.78-.3,4C33.88,42,33.2,42,32.5,42Zm0-5V32.5H35c0,1.61,0,3.13-.11,4.55C34.09,37,33.3,37,32.5,37Zm2.94,6.12a28.07,28.07,0,0,1,3,.44A23.65,23.65,0,0,1,37,47.51a16.68,16.68,0,0,0-2.1-.37C35.11,45.9,35.29,44.54,35.44,43.12Zm4.05.66a18.22,18.22,0,0,1,1.92.6A17.57,17.57,0,0,1,39,48.2a9,9,0,0,0-1-.4A24.66,24.66,0,0,0,39.49,43.78Zm.25-.94a36.23,36.23,0,0,0,.82-4.24c.95.16,1.84.33,2.65.53a24.46,24.46,0,0,1-1.4,4.36A15.28,15.28,0,0,0,39.74,42.84Zm4.43-3.46a19.78,19.78,0,0,1,2.4.86,20.61,20.61,0,0,1-2.28,4.55,8.19,8.19,0,0,0-1.58-.91A27,27,0,0,0,44.17,39.38Zm.21-1A32,32,0,0,0,45,32.5h3a24.05,24.05,0,0,1-1.09,6.78A18.44,18.44,0,0,0,44.38,38.4ZM45,31.5a31.56,31.56,0,0,0-.49-5.23A16.83,16.83,0,0,0,47,25.17a24.07,24.07,0,0,1,1,6.33Zm.79-14a20.73,20.73,0,0,1,3.24,4h0a2.9,2.9,0,0,1-1.41,2.15,22.42,22.42,0,0,0-2.54-5.09A3.38,3.38,0,0,0,45.78,17.51ZM45,16.79a2.25,2.25,0,0,1-.51,1,17.88,17.88,0,0,0-3.57-3.64v0A19.58,19.58,0,0,1,45,16.79Zm-4.64-1.86a17.56,17.56,0,0,1,3.4,3.48,8.07,8.07,0,0,1-1.42.83,18.8,18.8,0,0,0-2.43-3.93A4.48,4.48,0,0,0,40.33,14.93Zm-.84-.59a1.89,1.89,0,0,1-.27.2c-.32-.34-.65-.66-1-1C38.66,13.81,39.08,14.06,39.49,14.34ZM38.33,15c-.25.1-.52.19-.81.28a11.72,11.72,0,0,0-1.47-2.13A10.89,10.89,0,0,1,38.33,15Zm-1.83.56a14.7,14.7,0,0,1-1.82.3,15.17,15.17,0,0,0-1.09-3.47A8,8,0,0,1,36.5,15.58ZM33.66,16c-.37,0-.76,0-1.16,0V12.43A11.82,11.82,0,0,1,33.66,16ZM32.5,51.58V48c.4,0,.79,0,1.16,0A11.8,11.8,0,0,1,32.5,51.58Zm1.09,0a15.17,15.17,0,0,0,1.09-3.47,14.7,14.7,0,0,1,1.82.3A8,8,0,0,1,33.59,51.59Zm3.93-2.89c.29.09.56.18.81.28a10.89,10.89,0,0,1-2.28,1.85A11.72,11.72,0,0,0,37.52,48.7Zm.71,1.73c.34-.31.67-.63,1-1a1.89,1.89,0,0,1,.27.2C39.08,49.94,38.66,50.19,38.23,50.43Zm4.08-5.67a8.07,8.07,0,0,1,1.42.83,17.56,17.56,0,0,1-3.4,3.48,4.48,4.48,0,0,0-.45-.38A18.8,18.8,0,0,0,42.31,44.76ZM40.9,49.91v0a17.88,17.88,0,0,0,3.57-3.64,2.25,2.25,0,0,1,.51,1A19.58,19.58,0,0,1,40.9,49.91Zm4.88-3.42a3.38,3.38,0,0,0-.73-1.05,22.25,22.25,0,0,0,2.42-4.74c1,.58,1.53,1.2,1.53,1.8h0A20.73,20.73,0,0,1,45.78,46.49Zm3.89-5.13a4.86,4.86,0,0,0-1.87-1.63A24.6,24.6,0,0,0,49,32.5h3A19.61,19.61,0,0,1,49.67,41.36ZM32,0A32,32,0,1,0,64,32,32,32,0,0,0,32,0Zm0,63A31,31,0,1,1,63,32,31,31,0,0,1,32,63ZM32,6A26,26,0,1,0,58,32,26,26,0,0,0,32,6Zm0,51A25,25,0,1,1,57,32,25,25,0,0,1,32,57Zm1.25-45.94h-.11a2,2,0,0,0-.35,0,.55.55,0,0,0-.18,0H31.55a1.94,1.94,0,0,0-.34,0,2,2,0,0,0-.35,0h-.11a21,21,0,0,0,0,41.88h.11l.69,0h.74s0,0,0,0h.93a21,21,0,0,0,0-41.88ZM31.5,22v5c-.82,0-1.62,0-2.39-.06.07-1.83.19-3.5.34-5C30.12,22,30.8,22,31.5,22Zm-1.95-1.06c.17-1.53.37-2.86.59-4,.45,0,.91.05,1.36.05v4Q30.49,21,29.55,20.94ZM31.5,28v3.5H29c0-1.24,0-2.43.07-3.56Q30.26,28,31.5,28Zm-2.94-7.12a28.07,28.07,0,0,1-3-.44,23.65,23.65,0,0,1,1.5-4,16.68,16.68,0,0,0,2.1.37C28.89,18.1,28.71,19.46,28.56,20.88ZM28,32.5c0,1.37,0,3,.12,4.6-1.3.08-2.57.2-3.8.37a46.64,46.64,0,0,1-.32-5Zm-4-1c0-1.39.09-2.76.23-4.07,1.21.2,2.5.35,3.85.45C28,29.17,28,30.4,28,31.5Zm4.17,6.6c.07,1.34.17,2.7.29,4a27.36,27.36,0,0,0-3.2.46,36.77,36.77,0,0,1-.81-4.15C25.61,38.29,26.85,38.17,28.17,38.1Zm-.05-11.22c-1.35-.09-2.62-.24-3.79-.43h0a38,38,0,0,1,.93-5,27.36,27.36,0,0,0,3.2.46C28.31,23.53,28.19,25.24,28.12,26.88Zm-3.61-6.66a18.22,18.22,0,0,1-1.92-.6A17.57,17.57,0,0,1,25,15.8a9,9,0,0,0,1,.4A24.66,24.66,0,0,0,24.51,20.22Zm-.25.94a37.24,37.24,0,0,0-.93,5.11,26.64,26.64,0,0,1-2.7-.67,25.66,25.66,0,0,1,1.56-5.09A15.28,15.28,0,0,0,24.26,21.16ZM23,32.5a49,49,0,0,0,.32,5.11c-1,.15-1.88.33-2.74.54A31.08,31.08,0,0,1,20,32.5Zm-3-1a31.38,31.38,0,0,1,.44-4.93,27.61,27.61,0,0,0,2.78.68C23.09,28.61,23,30,23,31.5Zm1.28-11.37a26.48,26.48,0,0,0-1.6,5.17,14.28,14.28,0,0,1-2.43-1.09,21.52,21.52,0,0,1,2.45-5,8.19,8.19,0,0,0,1.58.91ZM19.5,26.27A31.56,31.56,0,0,0,19,31.5H16A24.07,24.07,0,0,1,17,25.17,16.83,16.83,0,0,0,19.5,26.27ZM19,32.5a32,32,0,0,0,.61,5.9,18.44,18.44,0,0,0-2.52.88A24.05,24.05,0,0,1,16,32.5Zm.82,6.88a26.84,26.84,0,0,0,1.46,4.49h0a8.19,8.19,0,0,0-1.58.91,20.61,20.61,0,0,1-2.28-4.55A19.78,19.78,0,0,1,19.83,39.38Zm1-.25c.81-.2,1.7-.37,2.65-.53a36.23,36.23,0,0,0,.82,4.24,15.28,15.28,0,0,0-2.07.65A24.46,24.46,0,0,1,20.79,39.13Zm3.72,4.65a24.66,24.66,0,0,0,1.5,4,9,9,0,0,0-1,.4,17.57,17.57,0,0,1-2.38-3.82A18.22,18.22,0,0,1,24.51,43.78Zm1-.22a28.07,28.07,0,0,1,3-.44c.15,1.42.33,2.78.56,4a16.68,16.68,0,0,0-2.1.37A23.65,23.65,0,0,1,25.52,43.56Zm3.59-6.51C29,35.63,29,34.11,29,32.5h2.5V37C30.7,37,29.91,37,29.11,37.05Zm2.39,1v4c-.7,0-1.38,0-2.05.06-.12-1.23-.22-2.56-.3-4C29.91,38,30.69,38,31.5,38Zm0,5v4c-.45,0-.91,0-1.36,0-.22-1.13-.42-2.46-.59-4Q30.49,43,31.5,43Zm0-30.57V16c-.4,0-.79,0-1.16,0A11.82,11.82,0,0,1,31.5,12.43Zm-1.09,0a15.17,15.17,0,0,0-1.09,3.47,14.7,14.7,0,0,1-1.82-.3A8,8,0,0,1,30.41,12.41ZM26.48,15.3c-.29-.09-.56-.18-.81-.28A10.89,10.89,0,0,1,28,13.17,11.72,11.72,0,0,0,26.48,15.3Zm-.71-1.73c-.34.31-.67.63-1,1a1.89,1.89,0,0,1-.27-.2C24.92,14.06,25.34,13.81,25.77,13.57Zm-1.65,1.74a18.8,18.8,0,0,0-2.43,3.93,8.07,8.07,0,0,1-1.42-.83,17.56,17.56,0,0,1,3.4-3.48A4.48,4.48,0,0,0,24.12,15.31Zm-1-1.22v0a17.88,17.88,0,0,0-3.57,3.64,2.25,2.25,0,0,1-.51-1A19.58,19.58,0,0,1,23.1,14.09Zm-4.88,3.42a3.38,3.38,0,0,0,.73,1,22.42,22.42,0,0,0-2.54,5.09A2.9,2.9,0,0,1,15,21.5h0A20.73,20.73,0,0,1,18.22,17.51Zm-3.92,5.2a5.28,5.28,0,0,0,1.78,1.91A25.2,25.2,0,0,0,15,31.5H12A19.62,19.62,0,0,1,14.3,22.71Zm0,18.65A19.61,19.61,0,0,1,12,32.5h3a24.6,24.6,0,0,0,1.19,7.23A4.86,4.86,0,0,0,14.33,41.36Zm3.89,5.13a20.73,20.73,0,0,1-3.24-4h0c0-.6.54-1.22,1.53-1.8A22.25,22.25,0,0,0,19,45.44,3.38,3.38,0,0,0,18.22,46.49Zm.81.72a2.25,2.25,0,0,1,.51-1,17.88,17.88,0,0,0,3.57,3.64v0A19.58,19.58,0,0,1,19,47.21Zm4.64,1.86a17.56,17.56,0,0,1-3.4-3.48,8.07,8.07,0,0,1,1.42-.83,18.8,18.8,0,0,0,2.43,3.93A4.48,4.48,0,0,0,23.67,49.07Zm.84.59a1.89,1.89,0,0,1,.27-.2c.32.34.65.66,1,1C25.34,50.19,24.92,49.94,24.51,49.66ZM25.67,49c.25-.1.52-.19.81-.28A11.72,11.72,0,0,0,28,50.83,10.89,10.89,0,0,1,25.67,49Zm1.83-.56a14.7,14.7,0,0,1,1.82-.3,15.17,15.17,0,0,0,1.09,3.47A8,8,0,0,1,27.5,48.42ZM30.34,48c.37,0,.76,0,1.16,0v3.58A11.8,11.8,0,0,1,30.34,48ZM52,31.5H49a25.2,25.2,0,0,0-1.07-6.88,5.28,5.28,0,0,0,1.78-1.91A19.62,19.62,0,0,1,52,31.5Zm-11,0c0-1.46-.09-2.89-.23-4.25a27.61,27.61,0,0,0,2.78-.68A31.38,31.38,0,0,1,44,31.5Zm3,1a31.08,31.08,0,0,1-.57,5.65c-.86-.21-1.78-.39-2.74-.54A49,49,0,0,0,41,32.5ZM42.71,20.12a8.19,8.19,0,0,0,1.58-.91,21.52,21.52,0,0,1,2.45,5,14.28,14.28,0,0,1-2.43,1.09A26.58,26.58,0,0,0,42.71,20.12Zm.66,5.48a26.64,26.64,0,0,1-2.7.67,37.24,37.24,0,0,0-.93-5.11,15.28,15.28,0,0,0,2.07-.65A25.66,25.66,0,0,1,43.37,25.6ZM35.83,38.1c1.32.07,2.56.19,3.72.35a36.77,36.77,0,0,1-.81,4.15,27.36,27.36,0,0,0-3.2-.46C35.66,40.8,35.76,39.44,35.83,38.1Zm-.29-16.24a27.36,27.36,0,0,0,3.2-.46,38.17,38.17,0,0,1,.93,5.05c-1.17.19-2.44.34-3.79.43C35.81,25.24,35.69,23.53,35.54,21.86Zm.34,15.24c.08-1.65.11-3.23.12-4.6h4a46.64,46.64,0,0,1-.32,5C38.45,37.3,37.18,37.18,35.88,37.1ZM36,31.5c0-1.1,0-2.33-.08-3.62,1.35-.1,2.64-.25,3.85-.45.14,1.31.21,2.68.23,4.07Zm3.49-11.28a24.66,24.66,0,0,0-1.5-4,9,9,0,0,0,1-.4,17.57,17.57,0,0,1,2.38,3.82A18.22,18.22,0,0,1,39.49,20.22Zm-1,.22a28.07,28.07,0,0,1-3,.44c-.15-1.42-.33-2.78-.56-4a16.68,16.68,0,0,0,2.1-.37A23.65,23.65,0,0,1,38.48,20.44ZM35,31.5H32.5V28q1.24,0,2.43-.06C35,29.07,35,30.26,35,31.5Zm-.11-4.56c-.77,0-1.57.06-2.39.06V22c.7,0,1.38,0,2-.06C34.7,23.44,34.82,25.11,34.89,26.94ZM32.5,21V17c.45,0,.91,0,1.36-.05.22,1.13.42,2.46.59,4Q33.5,21,32.5,21Zm0,22q1,0,2,.06c-.17,1.53-.37,2.86-.59,4-.45,0-.91,0-1.36,0Zm0-1V38c.81,0,1.59,0,2.35,0-.08,1.45-.18,2.78-.3,4C33.88,42,33.2,42,32.5,42Zm0-5V32.5H35c0,1.61,0,3.13-.11,4.55C34.09,37,33.3,37,32.5,37Zm2.94,6.12a28.07,28.07,0,0,1,3,.44A23.65,23.65,0,0,1,37,47.51a16.68,16.68,0,0,0-2.1-.37C35.11,45.9,35.29,44.54,35.44,43.12Zm4.05.66a18.22,18.22,0,0,1,1.92.6A17.57,17.57,0,0,1,39,48.2a9,9,0,0,0-1-.4A24.66,24.66,0,0,0,39.49,43.78Zm.25-.94a36.23,36.23,0,0,0,.82-4.24c.95.16,1.84.33,2.65.53a24.46,24.46,0,0,1-1.4,4.36A15.28,15.28,0,0,0,39.74,42.84Zm4.43-3.46a19.78,19.78,0,0,1,2.4.86,20.61,20.61,0,0,1-2.28,4.55,8.19,8.19,0,0,0-1.58-.91A27,27,0,0,0,44.17,39.38Zm.21-1A32,32,0,0,0,45,32.5h3a24.05,24.05,0,0,1-1.09,6.78A18.44,18.44,0,0,0,44.38,38.4ZM45,31.5a31.56,31.56,0,0,0-.49-5.23A16.83,16.83,0,0,0,47,25.17a24.07,24.07,0,0,1,1,6.33Zm.79-14a20.73,20.73,0,0,1,3.24,4h0a2.9,2.9,0,0,1-1.41,2.15,22.42,22.42,0,0,0-2.54-5.09A3.38,3.38,0,0,0,45.78,17.51ZM45,16.79a2.25,2.25,0,0,1-.51,1,17.88,17.88,0,0,0-3.57-3.64v0A19.58,19.58,0,0,1,45,16.79Zm-4.64-1.86a17.56,17.56,0,0,1,3.4,3.48,8.07,8.07,0,0,1-1.42.83,18.8,18.8,0,0,0-2.43-3.93A4.48,4.48,0,0,0,40.33,14.93Zm-.84-.59a1.89,1.89,0,0,1-.27.2c-.32-.34-.65-.66-1-1C38.66,13.81,39.08,14.06,39.49,14.34ZM38.33,15c-.25.1-.52.19-.81.28a11.72,11.72,0,0,0-1.47-2.13A10.89,10.89,0,0,1,38.33,15Zm-1.83.56a14.7,14.7,0,0,1-1.82.3,15.17,15.17,0,0,0-1.09-3.47A8,8,0,0,1,36.5,15.58ZM33.66,16c-.37,0-.76,0-1.16,0V12.43A11.82,11.82,0,0,1,33.66,16ZM32.5,51.58V48c.4,0,.79,0,1.16,0A11.8,11.8,0,0,1,32.5,51.58Zm1.09,0a15.17,15.17,0,0,0,1.09-3.47,14.7,14.7,0,0,1,1.82.3A8,8,0,0,1,33.59,51.59Zm3.93-2.89c.29.09.56.18.81.28a10.89,10.89,0,0,1-2.28,1.85A11.72,11.72,0,0,0,37.52,48.7Zm.71,1.73c.34-.31.67-.63,1-1a1.89,1.89,0,0,1,.27.2C39.08,49.94,38.66,50.19,38.23,50.43Zm4.08-5.67a8.07,8.07,0,0,1,1.42.83,17.56,17.56,0,0,1-3.4,3.48,4.48,4.48,0,0,0-.45-.38A18.8,18.8,0,0,0,42.31,44.76ZM40.9,49.91v0a17.88,17.88,0,0,0,3.57-3.64,2.25,2.25,0,0,1,.51,1A19.58,19.58,0,0,1,40.9,49.91Zm4.88-3.42a3.38,3.38,0,0,0-.73-1.05,22.25,22.25,0,0,0,2.42-4.74c1,.58,1.53,1.2,1.53,1.8h0A20.73,20.73,0,0,1,45.78,46.49Zm3.89-5.13a4.86,4.86,0,0,0-1.87-1.63A24.6,24.6,0,0,0,49,32.5h3A19.61,19.61,0,0,1,49.67,41.36ZM32,7A25,25,0,1,0,57,32,25,25,0,0,0,32,7Zm0,48A23,23,0,1,1,55,32,23,23,0,0,1,32,55ZM32,9A23,23,0,1,0,55,32,23,23,0,0,0,32,9Zm0,45A22,22,0,1,1,54,32,22,22,0,0,1,32,54Z"/></g></svg>