<svg xmlns="http://www.w3.org/2000/svg" viewBox="0 0 64 64"><g id="Person"><path d="M32,0A32,32,0,1,0,64,32,32,32,0,0,0,32,0Zm0,63A31,31,0,1,1,63,32,31,31,0,0,1,32,63ZM32,6A26,26,0,1,0,58,32,26,26,0,0,0,32,6Zm0,51A25,25,0,1,1,57,32,25,25,0,0,1,32,57ZM32,7A25,25,0,1,0,57,32,25,25,0,0,0,32,7Zm-.5,4c4.69,0,8.5,3.36,8.5,7.5S36.19,26,31.5,26,23,22.64,23,18.5,26.81,11,31.5,11ZM32,52c-10.65,0-19-5.49-19-12.5S21.52,27,32,27s19,5.61,19,12.5S42.65,52,32,52Zm0-25c-10.48,0-19,5.61-19,12.5S21.35,52,32,52s19-5.49,19-12.5S42.48,27,32,27Zm0,24c-10.09,0-18-5-18-11.5S22.08,28,32,28s18,5.16,18,11.5S42.09,51,32,51Zm-.5-40c-4.69,0-8.5,3.36-8.5,7.5S26.81,26,31.5,26,40,22.64,40,18.5,36.19,11,31.5,11Zm0,14c-4.14,0-7.5-2.92-7.5-6.5S27.36,12,31.5,12,39,14.92,39,18.5,35.64,25,31.5,25Z"/></g></svg>